<svg width="49" height="57" viewBox="0 0 49 57" fill="none" xmlns="http://www.w3.org/2000/svg">
<path d="M24.8 1C29.522 1 33.35 4.82797 33.35 9.55L45.32 9.55078C46.5792 9.55078 47.6 10.5716 47.6 11.8308V52.8708C47.6 54.13 46.5792 55.1508 45.32 55.1508H4.28C3.02079 55.1508 2 54.13 2 52.8708V40.9008C6.72168 40.9004 10.5492 37.0726 10.5492 32.3508C10.5492 27.629 6.72168 23.8012 2 23.8008V11.8308C2 10.5716 3.02079 9.55078 4.28 9.55078L16.25 9.55C16.25 4.82797 20.078 1 24.8 1Z" fill="url(#paint0_linear_3327_33657)"/>
<path d="M24.7998 1.5C29.2456 1.5 32.8495 5.104 32.8496 9.5498V10.0498H33.3496L45.3203 10.0508C46.3032 10.051 47.0996 10.8481 47.0996 11.8311V52.8711C47.0994 53.8539 46.3031 54.6502 45.3203 54.6504H4.28027C3.29731 54.6504 2.50017 53.854 2.5 52.8711V41.3857C7.26522 41.1258 11.0488 37.1807 11.0488 32.3506C11.0487 27.5205 7.26519 23.5743 2.5 23.3145V11.8311C2.5 10.9095 3.20023 10.1509 4.09766 10.0596L4.28027 10.0508L16.25 10.0498H16.75V9.5498C16.7501 5.10407 20.3541 1.50011 24.7998 1.5Z" stroke="url(#paint1_linear_3327_33657)" stroke-opacity="0.6"/>
<path d="M24.7998 0.525391C29.625 0.525391 33.5657 4.31243 33.8125 9.07617H45.3203C46.8417 9.07634 48.0752 10.3096 48.0752 11.8311V52.8711C48.075 54.3924 46.8416 55.6258 45.3203 55.626H4.28027C2.75883 55.626 1.52556 54.3925 1.52539 52.8711V40.4258H2C6.45934 40.4254 10.0742 36.81 10.0742 32.3506C10.0741 27.8912 6.45928 24.2758 2 24.2754H1.52539V11.8311C1.52539 10.3095 2.75873 9.07617 4.28027 9.07617H15.7881C16.0349 4.31251 19.9747 0.525492 24.7998 0.525391Z" stroke="url(#paint2_linear_3327_33657)" stroke-opacity="0.6" stroke-width="0.95"/>
<path d="M24.7998 0.525391C29.625 0.525391 33.5657 4.31243 33.8125 9.07617H45.3203C46.8417 9.07634 48.0752 10.3096 48.0752 11.8311V52.8711C48.075 54.3924 46.8416 55.6258 45.3203 55.626H4.28027C2.75883 55.626 1.52556 54.3925 1.52539 52.8711V40.4258H2C6.45934 40.4254 10.0742 36.81 10.0742 32.3506C10.0741 27.8912 6.45928 24.2758 2 24.2754H1.52539V11.8311C1.52539 10.3095 2.75873 9.07617 4.28027 9.07617H15.7881C16.0349 4.31251 19.9747 0.525492 24.7998 0.525391Z" stroke="url(#paint3_linear_3327_33657)" stroke-opacity="0.6" stroke-width="0.95"/>
<mask id="path-5-outside-1_3327_33657" maskUnits="userSpaceOnUse" x="0.597656" y="-0.699219" width="49" height="57" fill="black">
<rect fill="white" x="0.597656" y="-0.699219" width="49" height="57"/>
<path fill-rule="evenodd" clip-rule="evenodd" d="M47.5977 37.2315C45.6879 43.4225 43.3144 49.3543 40.5261 54.9977H40.3014C43.1987 49.1461 45.6491 42.9834 47.5977 36.5423V37.2315ZM47.5977 35.6132V36.1158C47.5833 36.1479 47.5689 36.18 47.5544 36.2121L47.371 36.1289C47.4481 35.958 47.5237 35.7861 47.5977 35.6132ZM47.5977 31.0751V30.866L21.2797 24.1436L27.0785 1.35576C27.0142 1.33671 26.9496 1.31838 26.8847 1.30078L21.0846 24.0938L1.59766 19.1162V19.3253L21.0347 24.2901L13.2205 54.9977H13.4282L14.0912 52.3926C14.2752 52.4396 14.4595 52.4849 14.6437 52.5281L14.6901 52.3309C14.507 52.288 14.324 52.243 14.1411 52.1963L21.2297 24.3399L47.5977 31.0751ZM46.0621 9.6533C46.1181 9.75008 46.1736 9.84717 46.2285 9.94457L46.4037 9.84444C46.3929 9.82531 46.3821 9.8062 46.3713 9.78709C46.2723 9.73534 46.169 9.69053 46.0621 9.6533ZM47.4434 11.8707C47.2832 11.5262 47.1165 11.1849 46.9432 10.8474L46.7642 10.9406C46.9364 11.2759 47.1019 11.6148 47.261 11.9569L47.4434 11.8707ZM46.5358 38.2529C46.7183 37.9207 46.8948 37.5839 47.065 37.2427L46.8851 37.1522C46.7161 37.4909 46.5409 37.8252 46.3596 38.1552L46.5358 38.2529ZM45.3593 40.2083C45.5677 39.8909 45.7702 39.569 45.9668 39.2422L45.7946 39.1375C45.5994 39.4621 45.3983 39.7819 45.1914 40.0968L45.3593 40.2083ZM44.0337 42.0634C44.2662 41.7637 44.4933 41.4588 44.7146 41.1491L44.5513 41.0311C44.3315 41.3386 44.106 41.6414 43.8751 41.939L44.0337 42.0634ZM42.5669 43.8077C42.8223 43.5272 43.0726 43.2412 43.3176 42.9498L43.164 42.8192C42.9207 43.1085 42.6722 43.3926 42.4185 43.6713L42.5669 43.8077ZM40.9683 45.4314C41.2448 45.1718 41.5166 44.9065 41.7833 44.6355L41.6405 44.493C41.3756 44.7622 41.1058 45.0255 40.8311 45.2834L40.9683 45.4314ZM39.2486 46.924C39.5446 46.6868 39.8361 46.4437 40.1229 46.1947L39.9916 46.0414C39.7068 46.2885 39.4173 46.5299 39.1234 46.7656L39.2486 46.924ZM37.4185 48.2771C37.732 48.0636 38.0415 47.8439 38.3467 47.6183L38.2277 47.4554C37.9246 47.6794 37.6173 47.8974 37.306 48.1093L37.4185 48.2771ZM35.4894 49.4825C35.8185 49.2943 36.144 49.0997 36.4655 48.8988L36.3596 48.7268C36.0403 48.9263 35.717 49.1196 35.3902 49.3064L35.4894 49.4825ZM33.4729 50.5333C33.8157 50.3714 34.1552 50.2029 34.4913 50.0277L34.399 49.848C34.0653 50.0217 33.7281 50.1893 33.3877 50.3501L33.4729 50.5333ZM31.3816 51.4225C31.7359 51.288 32.0874 51.1467 32.4358 50.9984L32.3578 50.8119C32.0118 50.9589 31.6628 51.0994 31.3109 51.2329L31.3816 51.4225ZM29.2279 52.1444C29.5917 52.0382 29.953 51.925 30.3118 51.8047L30.2485 51.6127C29.8923 51.7321 29.5335 51.8444 29.1722 51.95L29.2279 52.1444ZM27.0244 52.6944C27.3955 52.6172 27.7646 52.5328 28.1314 52.4412L28.0834 52.2447C27.7191 52.3356 27.3526 52.4194 26.9841 52.496L27.0244 52.6944ZM24.7859 53.0679C25.1619 53.0203 25.5363 52.9654 25.9089 52.9032L25.8764 52.7035C25.5064 52.7651 25.1347 52.8196 24.7613 52.8668L24.7859 53.0679ZM22.5247 53.2622C22.9035 53.2448 23.2811 53.2199 23.6573 53.1876L23.6407 52.9857C23.2671 53.0178 22.8922 53.0425 22.516 53.0598L22.5247 53.2622ZM20.2564 53.2761C20.6352 53.2889 21.0131 53.2941 21.3901 53.2918L21.3893 53.0892C21.015 53.0916 20.6397 53.0863 20.2636 53.0737L20.2564 53.2761ZM17.9942 53.1101C18.3713 53.1529 18.7481 53.188 19.1239 53.2156L19.139 53.0135C18.7656 52.9862 18.3918 52.9513 18.0175 52.9087L17.9942 53.1101ZM15.752 52.7657C16.1244 52.838 16.4969 52.9027 16.869 52.9599L16.8999 52.7597C16.5305 52.7029 16.1604 52.6386 15.7904 52.5669L15.752 52.7657Z"/>
</mask>
<path fill-rule="evenodd" clip-rule="evenodd" d="M47.5977 37.2315C45.6879 43.4225 43.3144 49.3543 40.5261 54.9977H40.3014C43.1987 49.1461 45.6491 42.9834 47.5977 36.5423V37.2315ZM47.5977 35.6132V36.1158C47.5833 36.1479 47.5689 36.18 47.5544 36.2121L47.371 36.1289C47.4481 35.958 47.5237 35.7861 47.5977 35.6132ZM47.5977 31.0751V30.866L21.2797 24.1436L27.0785 1.35576C27.0142 1.33671 26.9496 1.31838 26.8847 1.30078L21.0846 24.0938L1.59766 19.1162V19.3253L21.0347 24.2901L13.2205 54.9977H13.4282L14.0912 52.3926C14.2752 52.4396 14.4595 52.4849 14.6437 52.5281L14.6901 52.3309C14.507 52.288 14.324 52.243 14.1411 52.1963L21.2297 24.3399L47.5977 31.0751ZM46.0621 9.6533C46.1181 9.75008 46.1736 9.84717 46.2285 9.94457L46.4037 9.84444C46.3929 9.82531 46.3821 9.8062 46.3713 9.78709C46.2723 9.73534 46.169 9.69053 46.0621 9.6533ZM47.4434 11.8707C47.2832 11.5262 47.1165 11.1849 46.9432 10.8474L46.7642 10.9406C46.9364 11.2759 47.1019 11.6148 47.261 11.9569L47.4434 11.8707ZM46.5358 38.2529C46.7183 37.9207 46.8948 37.5839 47.065 37.2427L46.8851 37.1522C46.7161 37.4909 46.5409 37.8252 46.3596 38.1552L46.5358 38.2529ZM45.3593 40.2083C45.5677 39.8909 45.7702 39.569 45.9668 39.2422L45.7946 39.1375C45.5994 39.4621 45.3983 39.7819 45.1914 40.0968L45.3593 40.2083ZM44.0337 42.0634C44.2662 41.7637 44.4933 41.4588 44.7146 41.1491L44.5513 41.0311C44.3315 41.3386 44.106 41.6414 43.8751 41.939L44.0337 42.0634ZM42.5669 43.8077C42.8223 43.5272 43.0726 43.2412 43.3176 42.9498L43.164 42.8192C42.9207 43.1085 42.6722 43.3926 42.4185 43.6713L42.5669 43.8077ZM40.9683 45.4314C41.2448 45.1718 41.5166 44.9065 41.7833 44.6355L41.6405 44.493C41.3756 44.7622 41.1058 45.0255 40.8311 45.2834L40.9683 45.4314ZM39.2486 46.924C39.5446 46.6868 39.8361 46.4437 40.1229 46.1947L39.9916 46.0414C39.7068 46.2885 39.4173 46.5299 39.1234 46.7656L39.2486 46.924ZM37.4185 48.2771C37.732 48.0636 38.0415 47.8439 38.3467 47.6183L38.2277 47.4554C37.9246 47.6794 37.6173 47.8974 37.306 48.1093L37.4185 48.2771ZM35.4894 49.4825C35.8185 49.2943 36.144 49.0997 36.4655 48.8988L36.3596 48.7268C36.0403 48.9263 35.717 49.1196 35.3902 49.3064L35.4894 49.4825ZM33.4729 50.5333C33.8157 50.3714 34.1552 50.2029 34.4913 50.0277L34.399 49.848C34.0653 50.0217 33.7281 50.1893 33.3877 50.3501L33.4729 50.5333ZM31.3816 51.4225C31.7359 51.288 32.0874 51.1467 32.4358 50.9984L32.3578 50.8119C32.0118 50.9589 31.6628 51.0994 31.3109 51.2329L31.3816 51.4225ZM29.2279 52.1444C29.5917 52.0382 29.953 51.925 30.3118 51.8047L30.2485 51.6127C29.8923 51.7321 29.5335 51.8444 29.1722 51.95L29.2279 52.1444ZM27.0244 52.6944C27.3955 52.6172 27.7646 52.5328 28.1314 52.4412L28.0834 52.2447C27.7191 52.3356 27.3526 52.4194 26.9841 52.496L27.0244 52.6944ZM24.7859 53.0679C25.1619 53.0203 25.5363 52.9654 25.9089 52.9032L25.8764 52.7035C25.5064 52.7651 25.1347 52.8196 24.7613 52.8668L24.7859 53.0679ZM22.5247 53.2622C22.9035 53.2448 23.2811 53.2199 23.6573 53.1876L23.6407 52.9857C23.2671 53.0178 22.8922 53.0425 22.516 53.0598L22.5247 53.2622ZM20.2564 53.2761C20.6352 53.2889 21.0131 53.2941 21.3901 53.2918L21.3893 53.0892C21.015 53.0916 20.6397 53.0863 20.2636 53.0737L20.2564 53.2761ZM17.9942 53.1101C18.3713 53.1529 18.7481 53.188 19.1239 53.2156L19.139 53.0135C18.7656 52.9862 18.3918 52.9513 18.0175 52.9087L17.9942 53.1101ZM15.752 52.7657C16.1244 52.838 16.4969 52.9027 16.869 52.9599L16.8999 52.7597C16.5305 52.7029 16.1604 52.6386 15.7904 52.5669L15.752 52.7657Z" fill="#C4CBF5"/>
<path d="M47.5977 37.2315L48.5055 37.5115L48.5477 37.3747V37.2315H47.5977ZM40.5261 54.9977V55.9477H41.1163L41.3778 55.4186L40.5261 54.9977ZM40.3014 54.9977L39.45 54.5762L38.7709 55.9477H40.3014V54.9977ZM47.5977 36.5423H48.5477L46.6884 36.2672L47.5977 36.5423ZM47.5977 35.6132H48.5477L46.7242 35.2395L47.5977 35.6132ZM47.5977 36.1158L48.4651 36.5032L48.5477 36.3183V36.1158H47.5977ZM47.5544 36.2121L47.1619 37.0773L48.0288 37.4706L48.4204 36.6028L47.5544 36.2121ZM47.371 36.1289L46.5051 35.7383L46.1153 36.6024L46.9785 36.9941L47.371 36.1289ZM47.5977 30.866H48.5477V30.1281L47.8328 29.9455L47.5977 30.866ZM47.5977 31.0751L47.3626 31.9955L48.5477 32.2982V31.0751H47.5977ZM21.2797 24.1436L20.359 23.9093L20.1249 24.8291L21.0446 25.064L21.2797 24.1436ZM27.0785 1.35576L27.9991 1.59004L28.2244 0.704597L27.3484 0.444931L27.0785 1.35576ZM26.8847 1.30078L27.1334 0.383905L26.202 0.131305L25.9641 1.0665L26.8847 1.30078ZM21.0846 24.0938L20.8495 25.0142L21.7708 25.2495L22.0053 24.328L21.0846 24.0938ZM1.59766 19.1162L1.83277 18.1958L0.647656 17.8931L0.647656 19.1162H1.59766ZM1.59766 19.3253H0.647656V20.0632L1.36255 20.2458L1.59766 19.3253ZM21.0347 24.2901L21.9553 24.5244L22.1894 23.6046L21.2698 23.3697L21.0347 24.2901ZM13.2205 54.9977L12.2999 54.7635L11.9985 55.9477H13.2205V54.9977ZM13.4282 54.9977V55.9477H14.1668L14.3489 55.232L13.4282 54.9977ZM14.0912 52.3926L14.3262 51.4722L13.405 51.2369L13.1705 52.1584L14.0912 52.3926ZM14.6437 52.5281L14.4268 53.453L15.3512 53.6699L15.5685 52.7456L14.6437 52.5281ZM14.6901 52.3309L15.6149 52.5483L15.8325 51.6229L14.9069 51.4059L14.6901 52.3309ZM14.1411 52.1963L13.2205 51.962L12.9864 52.8818L13.906 53.1167L14.1411 52.1963ZM21.2297 24.3399L21.4648 23.4195L20.5435 23.1842L20.309 24.1057L21.2297 24.3399ZM46.2285 9.94457L45.4009 10.4111L45.8702 11.2436L46.6999 10.7694L46.2285 9.94457ZM46.0621 9.6533L46.3745 8.75615L43.9581 7.91465L45.2399 10.1292L46.0621 9.6533ZM46.4037 9.84444L46.8751 10.6692L47.6949 10.2007L47.2313 9.37804L46.4037 9.84444ZM46.3713 9.78709L47.1979 9.31889L47.0597 9.07501L46.8113 8.94517L46.3713 9.78709ZM46.9432 10.8474L47.7883 10.4135L47.3518 9.56312L46.5041 10.0049L46.9432 10.8474ZM47.4434 11.8707L47.8494 12.7296L48.7028 12.3262L48.3048 11.4702L47.4434 11.8707ZM46.7642 10.9406L46.3251 10.0982L45.4878 10.5346L45.9191 11.3746L46.7642 10.9406ZM47.261 11.9569L46.3995 12.3574L46.8025 13.2244L47.6669 12.8158L47.261 11.9569ZM47.065 37.2427L47.9151 37.6669L48.338 36.8195L47.4919 36.394L47.065 37.2427ZM46.5358 38.2529L46.0749 39.0836L46.9091 39.5464L47.3684 38.7103L46.5358 38.2529ZM46.8851 37.1522L47.312 36.3035L46.4607 35.8754L46.0351 36.728L46.8851 37.1522ZM46.3596 38.1552L45.527 37.6978L45.0716 38.527L45.8988 38.9859L46.3596 38.1552ZM45.9668 39.2422L46.7809 39.7319L47.2683 38.9215L46.4602 38.4304L45.9668 39.2422ZM45.3593 40.2083L44.8338 40.9997L45.6294 41.528L46.1535 40.7297L45.3593 40.2083ZM45.7946 39.1375L46.2881 38.3257L45.4725 37.83L44.9806 38.6479L45.7946 39.1375ZM45.1914 40.0968L44.3974 39.5753L43.8785 40.3654L44.6659 40.8883L45.1914 40.0968ZM44.7146 41.1491L45.4876 41.7014L46.0372 40.9324L45.2709 40.3789L44.7146 41.1491ZM44.0337 42.0634L43.4471 42.8107L44.1986 43.4005L44.7842 42.6458L44.0337 42.0634ZM44.5513 41.0311L45.1075 40.2609L44.3335 39.7019L43.7784 40.4787L44.5513 41.0311ZM43.8751 41.939L43.1246 41.3565L42.5453 42.1029L43.2885 42.6863L43.8751 41.939ZM43.3176 42.9498L44.0447 43.5611L44.6526 42.838L43.9329 42.2261L43.3176 42.9498ZM42.5669 43.8077L41.9239 44.507L42.6267 45.1533L43.2694 44.4473L42.5669 43.8077ZM43.164 42.8192L43.7793 42.0955L43.0515 41.4767L42.4368 42.2079L43.164 42.8192ZM42.4185 43.6713L41.716 43.0318L41.0798 43.7308L41.7755 44.3706L42.4185 43.6713ZM41.7833 44.6355L42.4604 45.3019L43.1225 44.6293L42.4542 43.9628L41.7833 44.6355ZM40.9683 45.4314L40.2717 46.0774L40.9216 46.7781L41.6184 46.1241L40.9683 45.4314ZM41.6405 44.493L42.3113 43.8203L41.6342 43.1451L40.9634 43.8266L41.6405 44.493ZM40.8311 45.2834L40.1807 44.591L39.4926 45.2372L40.1345 45.9294L40.8311 45.2834ZM40.1229 46.1947L40.7456 46.9121L41.4583 46.2936L40.8445 45.5768L40.1229 46.1947ZM39.2486 46.924L38.5033 47.513L39.0964 48.2635L39.8428 47.6653L39.2486 46.924ZM39.9916 46.0414L40.7132 45.4234L40.0912 44.6971L39.3689 45.3239L39.9916 46.0414ZM39.1234 46.7656L38.5292 46.0244L37.7932 46.6145L38.3781 47.3546L39.1234 46.7656ZM38.3467 47.6183L38.9114 48.3823L39.6709 47.8209L39.1139 47.0581L38.3467 47.6183ZM37.4185 48.2771L36.6296 48.8064L37.1625 49.6006L37.9531 49.0623L37.4185 48.2771ZM38.2277 47.4554L38.9949 46.8951L38.4314 46.1234L37.663 46.6915L38.2277 47.4554ZM37.306 48.1093L36.7713 47.3241L35.9913 47.8551L36.5171 48.6387L37.306 48.1093ZM36.4655 48.8988L36.9689 49.7044L37.7697 49.2041L37.2743 48.4003L36.4655 48.8988ZM35.4894 49.4825L34.6616 49.9487L35.1309 50.782L35.9611 50.3071L35.4894 49.4825ZM36.3596 48.7268L37.1683 48.2284L36.6668 47.4148L35.8563 47.9211L36.3596 48.7268ZM35.3902 49.3064L34.9188 48.4817L34.0992 48.9501L34.5625 49.7726L35.3902 49.3064ZM34.4913 50.0277L34.9305 50.8701L35.7678 50.4336L35.3364 49.5937L34.4913 50.0277ZM33.4729 50.5333L32.6115 50.9339L33.0146 51.8006L33.8788 51.3923L33.4729 50.5333ZM34.399 49.848L35.2441 49.414L34.8076 48.5641L33.9602 49.0054L34.399 49.848ZM33.3877 50.3501L32.9819 49.4911L32.128 49.8944L32.5263 50.7507L33.3877 50.3501ZM32.4358 50.9984L32.8078 51.8726L33.6765 51.503L33.3123 50.6319L32.4358 50.9984ZM31.3816 51.4225L30.4915 51.7544L30.8254 52.6497L31.7187 52.3106L31.3816 51.4225ZM32.3578 50.8119L33.2343 50.4454L32.8656 49.5637L31.9861 49.9376L32.3578 50.8119ZM31.3109 51.2329L30.9738 50.3448L30.0908 50.68L30.4208 51.5649L31.3109 51.2329ZM30.3118 51.8047L30.6138 52.7054L31.51 52.4049L31.214 51.5072L30.3118 51.8047ZM29.2279 52.1444L28.3146 52.4061L28.5776 53.3238L29.4941 53.0563L29.2279 52.1444ZM30.2485 51.6127L31.1507 51.3152L30.8518 50.4085L29.9466 50.7119L30.2485 51.6127ZM29.1722 51.95L28.9057 51.0381L27.9986 51.3032L28.2589 52.2117L29.1722 51.95ZM28.1314 52.4412L28.3616 53.3629L29.2787 53.134L29.0543 52.2157L28.1314 52.4412ZM27.0244 52.6944L26.0934 52.8834L26.2832 53.8189L27.2179 53.6245L27.0244 52.6944ZM28.0834 52.2447L29.0062 52.0192L28.7796 51.0917L27.8533 51.323L28.0834 52.2447ZM26.9841 52.496L26.7908 51.5659L25.865 51.7583L26.0531 52.685L26.9841 52.496ZM25.9089 52.9032L26.0654 53.8402L26.9985 53.6843L26.8465 52.7506L25.9089 52.9032ZM24.7859 53.0679L23.843 53.1833L23.9589 54.1301L24.9052 54.0104L24.7859 53.0679ZM25.8764 52.7035L26.814 52.5508L26.6608 51.6097L25.7202 51.7664L25.8764 52.7035ZM24.7613 52.8668L24.6422 51.9243L23.7034 52.043L23.8184 52.9822L24.7613 52.8668ZM23.6573 53.1876L23.7388 54.1341L24.6821 54.0529L24.6041 53.1093L23.6573 53.1876ZM22.5247 53.2622L21.5756 53.3031L21.6166 54.2549L22.5683 54.2112L22.5247 53.2622ZM23.6407 52.9857L24.5874 52.9075L24.509 51.9577L23.5595 52.0392L23.6407 52.9857ZM22.516 53.0598L22.4723 52.1108L21.5261 52.1544L21.5669 53.1008L22.516 53.0598ZM21.3901 53.2918L21.3957 54.2418L22.3436 54.2362L22.3401 53.2883L21.3901 53.2918ZM20.2564 53.2761L19.307 53.2424L19.2733 54.1934L20.2243 54.2255L20.2564 53.2761ZM21.3893 53.0892L22.3393 53.0857L22.3358 52.1331L21.3832 52.1392L21.3893 53.0892ZM20.2636 53.0737L20.2955 52.1242L19.3477 52.0924L19.3142 53.04L20.2636 53.0737ZM19.1239 53.2156L19.0542 54.1631L20.0006 54.2327L20.0713 53.2864L19.1239 53.2156ZM17.9942 53.1101L17.0505 53.001L16.9412 53.9466L17.887 54.054L17.9942 53.1101ZM19.139 53.0135L20.0864 53.0842L20.1572 52.1353L19.2083 52.066L19.139 53.0135ZM18.0175 52.9087L18.125 51.9648L17.1827 51.8575L17.0738 52.7997L18.0175 52.9087ZM16.869 52.9599L16.7248 53.8989L17.6633 54.043L17.808 53.1046L16.869 52.9599ZM15.752 52.7657L14.8192 52.5855L14.6393 53.5173L15.5709 53.6982L15.752 52.7657ZM16.8999 52.7597L17.8388 52.9044L17.9837 51.965L17.0441 51.8207L16.8999 52.7597ZM15.7904 52.5669L15.9712 51.6342L15.0379 51.4533L14.8576 52.3867L15.7904 52.5669ZM47.5977 37.2315L46.6899 36.9515C44.7951 43.0939 42.4404 48.9786 39.6744 54.5769L40.5261 54.9977L41.3778 55.4186C44.1885 49.73 46.5807 43.7511 48.5055 37.5115L47.5977 37.2315ZM40.5261 54.9977V54.0477H40.3014V54.9977V55.9477H40.5261V54.9977ZM40.3014 54.9977L41.1527 55.4193C44.0733 49.5208 46.5431 43.3091 48.507 36.8174L47.5977 36.5423L46.6884 36.2672C44.7551 42.6577 42.3242 48.7715 39.45 54.5762L40.3014 54.9977ZM47.5977 36.5423H46.6477V37.2315H47.5977H48.5477V36.5423H47.5977ZM47.5977 35.6132H46.6477V36.1158H47.5977H48.5477V35.6132H47.5977ZM47.5977 36.1158L46.7303 35.7283C46.7164 35.7594 46.7024 35.7905 46.6884 35.8215L47.5544 36.2121L48.4204 36.6028C48.4353 36.5696 48.4502 36.5364 48.4651 36.5032L47.5977 36.1158ZM47.5544 36.2121L47.9469 35.347L47.7636 35.2638L47.371 36.1289L46.9785 36.9941L47.1619 37.0773L47.5544 36.2121ZM47.371 36.1289L48.237 36.5195C48.3167 36.343 48.3947 36.1654 48.4711 35.9868L47.5977 35.6132L46.7242 35.2395C46.6527 35.4068 46.5796 35.5731 46.5051 35.7383L47.371 36.1289ZM47.5977 30.866H46.6477V31.0751H47.5977H48.5477V30.866H47.5977ZM47.5977 30.866L47.8328 29.9455L21.5148 23.2231L21.2797 24.1436L21.0446 25.064L47.3626 31.7864L47.5977 30.866ZM21.2797 24.1436L22.2003 24.3779L27.9991 1.59004L27.0785 1.35576L26.1578 1.12148L20.359 23.9093L21.2797 24.1436ZM26.8847 1.30078L26.6361 2.21766C26.6938 2.23332 26.7513 2.24963 26.8085 2.26658L27.0785 1.35576L27.3484 0.444931C27.2771 0.423784 27.2054 0.403439 27.1334 0.383905L26.8847 1.30078ZM26.8847 1.30078L25.9641 1.0665L20.164 23.8595L21.0846 24.0938L22.0053 24.328L27.8054 1.53506L26.8847 1.30078ZM21.0846 24.0938L21.3197 23.1733L1.83277 18.1958L1.59766 19.1162L1.36255 20.0367L20.8495 25.0142L21.0846 24.0938ZM1.59766 19.3253H2.54766V19.1162H1.59766H0.647656V19.3253H1.59766ZM1.59766 19.3253L1.36255 20.2458L20.7995 25.2106L21.0347 24.2901L21.2698 23.3697L1.83277 18.4049L1.59766 19.3253ZM21.0347 24.2901L20.114 24.0558L12.2999 54.7635L13.2205 54.9977L14.1412 55.232L21.9553 24.5244L21.0347 24.2901ZM13.4282 54.9977V54.0477H13.2205V54.9977V55.9477H13.4282V54.9977ZM14.0912 52.3926L13.1705 52.1584L12.5076 54.7635L13.4282 54.9977L14.3489 55.232L15.0118 52.6269L14.0912 52.3926ZM14.6437 52.5281L14.8607 51.6032C14.6829 51.5615 14.5047 51.5178 14.3262 51.4722L14.0912 52.3926L13.8561 53.3131C14.0457 53.3615 14.236 53.4083 14.4268 53.453L14.6437 52.5281ZM14.6901 52.3309L13.7653 52.1134L13.7189 52.3107L14.6437 52.5281L15.5685 52.7456L15.6149 52.5483L14.6901 52.3309ZM14.1411 52.1963L13.906 53.1167C14.0946 53.1649 14.2837 53.2114 14.4733 53.2558L14.6901 52.3309L14.9069 51.4059C14.7304 51.3645 14.5534 51.3211 14.3762 51.2758L14.1411 52.1963ZM21.2297 24.3399L20.309 24.1057L13.2205 51.962L14.1411 52.1963L15.0618 52.4306L22.1503 24.5742L21.2297 24.3399ZM47.5977 31.0751L47.8328 30.1546L21.4648 23.4195L21.2297 24.3399L20.9946 25.2604L47.3626 31.9955L47.5977 31.0751ZM46.2285 9.94457L47.056 9.47808C46.9994 9.37752 46.9421 9.2773 46.8843 9.17742L46.0621 9.6533L45.2399 10.1292C45.2941 10.2229 45.3478 10.3168 45.4009 10.4111L46.2285 9.94457ZM46.4037 9.84444L45.9323 9.01965L45.7571 9.11977L46.2285 9.94457L46.6999 10.7694L46.8751 10.6692L46.4037 9.84444ZM46.3713 9.78709L45.5446 10.2553C45.5551 10.2738 45.5656 10.2923 45.576 10.3108L46.4037 9.84444L47.2313 9.37804C47.2202 9.35834 47.209 9.33862 47.1979 9.31889L46.3713 9.78709ZM46.0621 9.6533L45.7497 10.5505C45.8124 10.5723 45.873 10.5986 45.9312 10.629L46.3713 9.78709L46.8113 8.94517C46.6715 8.87208 46.5256 8.80876 46.3745 8.75615L46.0621 9.6533ZM46.9432 10.8474L46.098 11.2812C46.2656 11.6077 46.427 11.9378 46.582 12.2712L47.4434 11.8707L48.3048 11.4702C48.1395 11.1146 47.9673 10.7622 47.7883 10.4135L46.9432 10.8474ZM46.7642 10.9406L47.2033 11.7831L47.3822 11.6898L46.9432 10.8474L46.5041 10.0049L46.3251 10.0982L46.7642 10.9406ZM47.261 11.9569L48.1224 11.5565C47.9583 11.2033 47.7872 10.8532 47.6093 10.5067L46.7642 10.9406L45.9191 11.3746C46.0855 11.6985 46.2456 12.0263 46.3995 12.3574L47.261 11.9569ZM47.4434 11.8707L47.0374 11.0118L46.855 11.098L47.261 11.9569L47.6669 12.8158L47.8494 12.7296L47.4434 11.8707ZM47.065 37.2427L46.215 36.8185C46.0503 37.1485 45.8796 37.4743 45.7032 37.7955L46.5358 38.2529L47.3684 38.7103C47.5569 38.3672 47.7392 38.0193 47.9151 37.6669L47.065 37.2427ZM46.8851 37.1522L46.4583 38.001L46.6382 38.0914L47.065 37.2427L47.4919 36.394L47.312 36.3035L46.8851 37.1522ZM46.3596 38.1552L47.1923 38.6125C47.3795 38.2717 47.5605 37.9264 47.7351 37.5765L46.8851 37.1522L46.0351 36.728C45.8717 37.0555 45.7022 37.3788 45.527 37.6978L46.3596 38.1552ZM46.5358 38.2529L46.9966 37.4222L46.8205 37.3245L46.3596 38.1552L45.8988 38.9859L46.0749 39.0836L46.5358 38.2529ZM45.9668 39.2422L45.1527 38.7525C44.9627 39.0685 44.7668 39.3799 44.5652 39.6869L45.3593 40.2083L46.1535 40.7297C46.3686 40.402 46.5778 40.0695 46.7809 39.7319L45.9668 39.2422ZM45.7946 39.1375L45.3012 39.9494L45.4734 40.054L45.9668 39.2422L46.4602 38.4304L46.2881 38.3257L45.7946 39.1375ZM45.1914 40.0968L45.9855 40.6184C46.1992 40.2929 46.407 39.9626 46.6087 39.6272L45.7946 39.1375L44.9806 38.6479C44.7918 38.9617 44.5974 39.2708 44.3974 39.5753L45.1914 40.0968ZM45.3593 40.2083L45.8848 39.4169L45.7169 39.3054L45.1914 40.0968L44.6659 40.8883L44.8338 40.9997L45.3593 40.2083ZM44.7146 41.1491L43.9417 40.5967C43.7276 40.8963 43.508 41.1913 43.2831 41.481L44.0337 42.0634L44.7842 42.6458C45.0244 42.3362 45.259 42.0213 45.4876 41.7014L44.7146 41.1491ZM44.5513 41.0311L43.995 41.8012L44.1584 41.9192L44.7146 41.1491L45.2709 40.3789L45.1075 40.2609L44.5513 41.0311ZM43.8751 41.939L44.6256 42.5214C44.8643 42.2139 45.0972 41.9011 45.3242 41.5835L44.5513 41.0311L43.7784 40.4787C43.5658 40.7762 43.3478 41.0689 43.1246 41.3565L43.8751 41.939ZM44.0337 42.0634L44.6202 41.3161L44.4616 41.1917L43.8751 41.939L43.2885 42.6863L43.4471 42.8107L44.0337 42.0634ZM43.3176 42.9498L42.5904 42.3385C42.3535 42.6203 42.1115 42.8969 41.8645 43.1682L42.5669 43.8077L43.2694 44.4473C43.5332 44.1575 43.7917 43.8622 44.0447 43.5611L43.3176 42.9498ZM43.164 42.8192L42.5486 43.543L42.7022 43.6736L43.3176 42.9498L43.9329 42.2261L43.7793 42.0955L43.164 42.8192ZM42.4185 43.6713L43.1211 44.3108C43.3832 44.0229 43.6399 43.7294 43.8911 43.4306L43.164 42.8192L42.4368 42.2079C42.2016 42.4877 41.9613 42.7624 41.716 43.0318L42.4185 43.6713ZM42.5669 43.8077L43.21 43.1084L43.0616 42.972L42.4185 43.6713L41.7755 44.3706L41.9239 44.507L42.5669 43.8077ZM41.7833 44.6355L41.1063 43.969C40.8483 44.2311 40.5855 44.4877 40.3182 44.7387L40.9683 45.4314L41.6184 46.1241C41.9041 45.8559 42.1848 45.5818 42.4604 45.3019L41.7833 44.6355ZM41.6405 44.493L40.9697 45.1657L41.1125 45.3082L41.7833 44.6355L42.4542 43.9628L42.3113 43.8203L41.6405 44.493ZM40.8311 45.2834L41.4815 45.9759C41.765 45.7097 42.0437 45.4377 42.3176 45.1594L41.6405 44.493L40.9634 43.8266C40.7075 44.0867 40.4466 44.3413 40.1807 44.591L40.8311 45.2834ZM40.9683 45.4314L41.6649 44.7854L41.5277 44.6375L40.8311 45.2834L40.1345 45.9294L40.2717 46.0774L40.9683 45.4314ZM40.1229 46.1947L39.5002 45.4772C39.2227 45.7181 38.9407 45.9533 38.6545 46.1827L39.2486 46.924L39.8428 47.6653C40.1484 47.4203 40.4494 47.1692 40.7456 46.9121L40.1229 46.1947ZM39.9916 46.0414L39.27 46.6593L39.4013 46.8126L40.1229 46.1947L40.8445 45.5768L40.7132 45.4234L39.9916 46.0414ZM39.1234 46.7656L39.7177 47.5068C40.0211 47.2635 40.3201 47.0142 40.6143 46.7588L39.9916 46.0414L39.3689 45.3239C39.0935 45.5629 38.8136 45.7964 38.5292 46.0244L39.1234 46.7656ZM39.2486 46.924L39.994 46.335L39.8688 46.1765L39.1234 46.7656L38.3781 47.3546L38.5033 47.513L39.2486 46.924ZM38.3467 47.6183L37.782 46.8544C37.4867 47.0727 37.1872 47.2852 36.8838 47.4918L37.4185 48.2771L37.9531 49.0623C38.2769 48.8419 38.5964 48.6152 38.9114 48.3823L38.3467 47.6183ZM38.2277 47.4554L37.4605 48.0156L37.5795 48.1786L38.3467 47.6183L39.1139 47.0581L38.9949 46.8951L38.2277 47.4554ZM37.306 48.1093L37.8406 48.8946C38.1619 48.6758 38.4793 48.4508 38.7925 48.2193L38.2277 47.4554L37.663 46.6915C37.3699 46.9081 37.0727 47.1189 36.7713 47.3241L37.306 48.1093ZM37.4185 48.2771L38.2074 47.7477L38.0948 47.58L37.306 48.1093L36.5171 48.6387L36.6296 48.8064L37.4185 48.2771ZM36.4655 48.8988L35.9622 48.0931C35.6511 48.2874 35.3362 48.4757 35.0177 48.6579L35.4894 49.4825L35.9611 50.3071C36.3008 50.1128 36.6368 49.9119 36.9689 49.7044L36.4655 48.8988ZM36.3596 48.7268L35.5508 49.2253L35.6568 49.3972L36.4655 48.8988L37.2743 48.4003L37.1683 48.2284L36.3596 48.7268ZM35.3902 49.3064L35.8617 50.1312C36.1993 49.9382 36.5332 49.7385 36.8629 49.5325L36.3596 48.7268L35.8563 47.9211C35.5473 48.1141 35.2347 48.3011 34.9188 48.4817L35.3902 49.3064ZM35.4894 49.4825L36.3171 49.0163L36.218 48.8403L35.3902 49.3064L34.5625 49.7726L34.6616 49.9487L35.4894 49.4825ZM34.4913 50.0277L34.0522 49.1853C33.7273 49.3546 33.3989 49.5176 33.067 49.6744L33.4729 50.5333L33.8788 51.3923C34.2325 51.2251 34.5832 51.0511 34.9305 50.8701L34.4913 50.0277ZM34.399 49.848L33.554 50.282L33.6463 50.4617L34.4913 50.0277L35.3364 49.5937L35.2441 49.414L34.399 49.848ZM33.3877 50.3501L33.7934 51.2091C34.1452 51.0429 34.4934 50.8699 34.8378 50.6905L34.399 49.848L33.9602 49.0054C33.6372 49.1736 33.3111 49.3356 32.9819 49.4911L33.3877 50.3501ZM33.4729 50.5333L34.3343 50.1327L34.2491 49.9495L33.3877 50.3501L32.5263 50.7507L32.6115 50.9339L33.4729 50.5333ZM32.4358 50.9984L32.0639 50.1242C31.727 50.2675 31.3872 50.4042 31.0445 50.5343L31.3816 51.4225L31.7187 52.3106C32.0846 52.1718 32.4477 52.0258 32.8078 51.8726L32.4358 50.9984ZM32.3578 50.8119L31.4814 51.1783L31.5594 51.3649L32.4358 50.9984L33.3123 50.6319L33.2343 50.4454L32.3578 50.8119ZM31.3109 51.2329L31.6481 52.1211C32.0116 51.9831 32.3722 51.838 32.7295 51.6861L32.3578 50.8119L31.9861 49.9376C31.6515 50.0798 31.314 50.2156 30.9738 50.3448L31.3109 51.2329ZM31.3816 51.4225L32.2717 51.0905L32.2011 50.901L31.3109 51.2329L30.4208 51.5649L30.4915 51.7544L31.3816 51.4225ZM30.3118 51.8047L30.0098 50.904C29.6629 51.0202 29.3135 51.1297 28.9617 51.2324L29.2279 52.1444L29.4941 53.0563C29.8698 52.9467 30.2431 52.8297 30.6138 52.7054L30.3118 51.8047ZM30.2485 51.6127L29.3463 51.9101L29.4095 52.1021L30.3118 51.8047L31.214 51.5072L31.1507 51.3152L30.2485 51.6127ZM29.1722 51.95L29.4386 52.8619C29.8115 52.7529 30.1822 52.6369 30.5504 52.5134L30.2485 51.6127L29.9466 50.7119C29.6024 50.8273 29.2554 50.936 28.9057 51.0381L29.1722 51.95ZM29.2279 52.1444L30.1411 51.8827L30.0854 51.6883L29.1722 51.95L28.2589 52.2117L28.3146 52.4061L29.2279 52.1444ZM28.1314 52.4412L27.9013 51.5195C27.5467 51.6081 27.1898 51.6896 26.8309 51.7643L27.0244 52.6944L27.2179 53.6245C27.6011 53.5448 27.9824 53.4576 28.3616 53.3629L28.1314 52.4412ZM28.0834 52.2447L27.1606 52.4702L27.2086 52.6668L28.1314 52.4412L29.0543 52.2157L29.0062 52.0192L28.0834 52.2447ZM26.9841 52.496L27.1774 53.4261C27.5582 53.347 27.9369 53.2604 28.3135 53.1664L28.0834 52.2447L27.8533 51.323C27.5012 51.4109 27.147 51.4918 26.7908 51.5659L26.9841 52.496ZM27.0244 52.6944L27.9554 52.5054L27.9151 52.307L26.9841 52.496L26.0531 52.685L26.0934 52.8834L27.0244 52.6944ZM25.9089 52.9032L25.7523 51.9662C25.3923 52.0263 25.0304 52.0794 24.6667 52.1254L24.7859 53.0679L24.9052 54.0104C25.2935 53.9612 25.6803 53.9046 26.0654 53.8402L25.9089 52.9032ZM25.8764 52.7035L24.9387 52.8561L24.9712 53.0558L25.9089 52.9032L26.8465 52.7506L26.814 52.5508L25.8764 52.7035ZM24.7613 52.8668L24.8805 53.8093C25.2663 53.7605 25.6504 53.7042 26.0325 53.6405L25.8764 52.7035L25.7202 51.7664C25.3625 51.826 25.0031 51.8787 24.6422 51.9243L24.7613 52.8668ZM24.7859 53.0679L25.7289 52.9524L25.7043 52.7514L24.7613 52.8668L23.8184 52.9822L23.843 53.1833L24.7859 53.0679ZM23.6573 53.1876L23.5759 52.2411C23.2123 52.2723 22.8474 52.2964 22.4811 52.3132L22.5247 53.2622L22.5683 54.2112C22.9597 54.1932 23.3499 54.1675 23.7388 54.1341L23.6573 53.1876ZM23.6407 52.9857L22.6939 53.0639L22.7106 53.2658L23.6573 53.1876L24.6041 53.1093L24.5874 52.9075L23.6407 52.9857ZM22.516 53.0598L22.5596 54.0088C22.9484 53.9909 23.3359 53.9653 23.7219 53.9322L23.6407 52.9857L23.5595 52.0392C23.1983 52.0702 22.8359 52.0941 22.4723 52.1108L22.516 53.0598ZM22.5247 53.2622L23.4738 53.2213L23.4651 53.0189L22.516 53.0598L21.5669 53.1008L21.5756 53.3031L22.5247 53.2622ZM21.3901 53.2918L21.3844 52.3418C21.02 52.344 20.6546 52.339 20.2885 52.3266L20.2564 53.2761L20.2243 54.2255C20.6157 54.2388 21.0063 54.2441 21.3957 54.2418L21.3901 53.2918ZM21.3893 53.0892L20.4393 53.0927L20.4401 53.2953L21.3901 53.2918L22.3401 53.2883L22.3393 53.0857L21.3893 53.0892ZM20.2636 53.0737L20.2317 54.0232C20.6201 54.0362 21.0081 54.0416 21.3955 54.0392L21.3893 53.0892L21.3832 52.1392C21.0219 52.1415 20.6592 52.1364 20.2955 52.1242L20.2636 53.0737ZM20.2564 53.2761L21.2058 53.3097L21.213 53.1073L20.2636 53.0737L19.3142 53.04L19.307 53.2424L20.2564 53.2761ZM19.1239 53.2156L19.1936 52.2682C18.8301 52.2415 18.4658 52.2075 18.1014 52.1662L17.9942 53.1101L17.887 54.054C18.2768 54.0983 18.6661 54.1345 19.0542 54.1631L19.1239 53.2156ZM19.139 53.0135L18.1916 52.9428L18.1766 53.1449L19.1239 53.2156L20.0713 53.2864L20.0864 53.0842L19.139 53.0135ZM18.0175 52.9087L17.91 53.8526C18.2972 53.8967 18.6837 53.9327 19.0698 53.9609L19.139 53.0135L19.2083 52.066C18.8475 52.0396 18.4865 52.006 18.125 51.9648L18.0175 52.9087ZM17.9942 53.1101L18.938 53.2191L18.9612 53.0178L18.0175 52.9087L17.0738 52.7997L17.0505 53.001L17.9942 53.1101ZM16.869 52.9599L17.0133 52.0209C16.6534 51.9656 16.2932 51.903 15.9332 51.8331L15.752 52.7657L15.5709 53.6982C15.9556 53.773 16.3404 53.8398 16.7248 53.8989L16.869 52.9599ZM16.8999 52.7597L15.961 52.6149L15.9301 52.8151L16.869 52.9599L17.808 53.1046L17.8388 52.9044L16.8999 52.7597ZM15.7904 52.5669L15.6096 53.4995C15.9916 53.5736 16.3739 53.64 16.7557 53.6987L16.8999 52.7597L17.0441 51.8207C16.6871 51.7658 16.3292 51.7036 15.9712 51.6342L15.7904 52.5669ZM15.752 52.7657L16.6848 52.9458L16.7232 52.747L15.7904 52.5669L14.8576 52.3867L14.8192 52.5855L15.752 52.7657Z" fill="url(#paint4_linear_3327_33657)" fill-opacity="0.6" mask="url(#path-5-outside-1_3327_33657)"/>
<defs>
<linearGradient id="paint0_linear_3327_33657" x1="24.8" y1="1" x2="24.8" y2="55.1508" gradientUnits="userSpaceOnUse">
<stop stop-color="#3C52D8"/>
<stop offset="1" stop-color="#0D193B"/>
</linearGradient>
<linearGradient id="paint1_linear_3327_33657" x1="24.8" y1="1" x2="24.8" y2="55.1508" gradientUnits="userSpaceOnUse">
<stop stop-color="white"/>
<stop offset="1" stop-color="white" stop-opacity="0"/>
</linearGradient>
<linearGradient id="paint2_linear_3327_33657" x1="24.8" y1="56.8719" x2="24.8" y2="112.15" gradientUnits="userSpaceOnUse">
<stop stop-color="white" stop-opacity="0"/>
<stop offset="1" stop-color="white"/>
</linearGradient>
<linearGradient id="paint3_linear_3327_33657" x1="24.8" y1="56.8719" x2="24.8" y2="112.15" gradientUnits="userSpaceOnUse">
<stop stop-color="white" stop-opacity="0"/>
<stop offset="1" stop-color="white"/>
</linearGradient>
<linearGradient id="paint4_linear_3327_33657" x1="24.8002" y1="56.8689" x2="24.8002" y2="112.144" gradientUnits="userSpaceOnUse">
<stop stop-color="white" stop-opacity="0"/>
<stop offset="1" stop-color="white"/>
</linearGradient>
</defs>
</svg>
